<svg xmlns="http://www.w3.org/2000/svg" width="32" height="22" viewBox="0 0 32 22"><g transform="translate(-304 -474)"><g transform="translate(304 468.69)"><path d="M0,22.447a.563.563,0,0,0,.558.6h.891A3.944,3.944,0,0,1,4.993,20.68a3.944,3.944,0,0,1,3.544,2.364h11.58V18.215H0Z"/><path d="M4.993,21.956a2.677,2.677,0,0,0,0,5.354,2.677,2.677,0,0,0,0-5.354Z"/><path d="M31.658,16.247l-2.5-1.121h-7.8v7.917h1.514a3.838,3.838,0,0,1,7.088,0h1.481a.563.563,0,0,0,.558-.6V16.823A.617.617,0,0,0,31.658,16.247Z"/><path d="M26.586,10.562a1.779,1.779,0,0,0-1.61-.977H21.359V13.86h6.906Z"/><path d="M18.333,5.31H1.774A1.809,1.809,0,0,0,0,7.166v9.782H20.116V7.166s0-.006,0-.009A1.817,1.817,0,0,0,18.333,5.31Z"/><path d="M26.416,21.956a2.677,2.677,0,1,0,2.626,2.677h0A2.652,2.652,0,0,0,26.416,21.956Z"/></g><path d="M327.791,493.323A2.626,2.626,0,1,1,330.417,496,2.651,2.651,0,0,1,327.791,493.323Zm-21.424,0A2.626,2.626,0,1,1,308.992,496,2.651,2.651,0,0,1,306.367,493.323Zm27.593-1.589a3.837,3.837,0,0,0-7.087,0h-1.514v-7.917h7.8l2.5,1.121a.616.616,0,0,1,.342.576v5.623a.563.563,0,0,1-.558.6Zm-21.424,0a3.837,3.837,0,0,0-7.087,0h-.891a.563.563,0,0,1-.558-.6V486.9h20.116v4.83Zm-8.536-6.1v-9.782A1.809,1.809,0,0,1,305.774,474h16.559a1.817,1.817,0,0,1,1.784,1.847s0,.006,0,.009v9.782Zm21.359-3.088v-4.275h3.617a1.779,1.779,0,0,1,1.61.977l1.678,3.3Z" fill="#fff"/></g></svg>