<svg xmlns="http://www.w3.org/2000/svg" width="20" height="20" viewBox="0 0 20 20"><g transform="translate(-64 -1039)"><g transform="translate(63.979 1039)"><path d="M19.5,14.678l-2.8-2.791a1.862,1.862,0,0,0-3.1.7,1.9,1.9,0,0,1-2.2,1.2A8.616,8.616,0,0,1,6.211,8.6,1.806,1.806,0,0,1,7.41,6.4a1.855,1.855,0,0,0,.7-3.09L5.312.523a2,2,0,0,0-2.7,0L.717,2.417c-1.9,1.994.2,7.277,4.895,11.962S15.6,21.257,17.6,19.263l1.9-1.894A1.988,1.988,0,0,0,19.5,14.678Z"/></g><path d="M79.514,1059c-2.552,0-6.406-2.111-9.923-5.62-4.694-4.685-6.792-9.968-4.894-11.962l1.9-1.894a2,2,0,0,1,2.7,0l2.8,2.792a1.854,1.854,0,0,1-.7,3.09,1.806,1.806,0,0,0-1.2,2.193,8.616,8.616,0,0,0,5.195,5.183,1.9,1.9,0,0,0,2.2-1.2,1.862,1.862,0,0,1,3.1-.7l2.8,2.791a1.987,1.987,0,0,1,0,2.691l-1.9,1.894a2.81,2.81,0,0,1-2.059.736Z" fill="#fff"/></g></svg>