<svg xmlns="http://www.w3.org/2000/svg" width="44" height="44" viewBox="0 0 44 44"><g transform="translate(-544 -647)"><rect width="44" height="44" rx="4" transform="translate(544 647)" fill="#f3f7fb"/><g transform="translate(555.344 658.323)"><path d="M17.881,15.851l-3.029-1.99a1.984,1.984,0,0,0-2.329.1,1.477,1.477,0,0,1-1.966-.111L7.482,10.776A1.478,1.478,0,0,1,7.37,8.81a1.984,1.984,0,0,0,.1-2.329L5.482,3.452a1.952,1.952,0,0,0-1.52-.892,1.952,1.952,0,0,0-1.633.664A6.653,6.653,0,0,0,2.6,12.335l6.4,6.4A6.653,6.653,0,0,0,18.11,19a1.992,1.992,0,0,0-.229-3.153Z"/><path d="M20.485.849A.586.586,0,0,0,20.07.677H16.536a.586.586,0,1,0,0,1.172h2.123L12.118,8.407a.586.586,0,0,0,.83.827L19.484,2.68V4.8a.586.586,0,0,0,.586.586h0a.586.586,0,0,0,.586-.586V1.263A.585.585,0,0,0,20.485.849Z"/></g><path d="M564.342,677.056l-6.4-6.4a6.652,6.652,0,0,1-.272-9.112,1.992,1.992,0,0,1,3.153.229l1.991,3.029a1.983,1.983,0,0,1-.1,2.329,1.478,1.478,0,0,0,.112,1.966l3.075,3.076a1.478,1.478,0,0,0,1.966.111,1.983,1.983,0,0,1,2.329-.1l3.029,1.99a1.991,1.991,0,0,1,.229,3.154,6.652,6.652,0,0,1-9.112-.272Zm3.12-9.5a.586.586,0,0,1,0-.828L574,660.172H571.88a.586.586,0,1,1,0-1.172h3.534a.585.585,0,0,1,.586.586v3.534a.586.586,0,1,1-1.172,0V661l-6.537,6.554a.587.587,0,0,1-.829,0Z" fill="#82898e"/></g></svg>