<svg xmlns="http://www.w3.org/2000/svg" width="24.975" height="24.975" viewBox="0 0 24.975 24.975"><g transform="translate(-561 -496.549)"><g transform="translate(585.975 496.549) rotate(-180)"><path d="M14.734,0A10.252,10.252,0,0,1,4.493-10.241a10.194,10.194,0,0,1,2.346-6.516L0-23.6l1.379-1.379,6.839,6.839a10.194,10.194,0,0,1,6.516-2.346A10.252,10.252,0,0,1,24.975-10.241,10.252,10.252,0,0,1,14.734,0Zm0-18.531a8.3,8.3,0,0,0-8.29,8.29,8.3,8.3,0,0,0,8.29,8.29,8.3,8.3,0,0,0,8.29-8.29A8.3,8.3,0,0,0,14.734-18.531Z" fill="none"/></g><path d="M577.756,514.685a10.251,10.251,0,1,1,1.38-1.38l6.839,6.839-1.38,1.38Zm-14.8-7.895a8.29,8.29,0,1,0,8.29-8.291A8.3,8.3,0,0,0,562.951,506.79Z" fill="#3397b9"/></g></svg>