<svg xmlns="http://www.w3.org/2000/svg" width="68" height="42" viewBox="0 0 68 42">
  <g id="logo_w" transform="translate(-24 -30)">
    <g id="logo" transform="translate(-18.516 -56.318)">
      <g id="그룹_2" data-name="그룹 2">
        <path id="패스_1" data-name="패스 1" d="M68.829,128.318l34.549-.006,1.749-9.661H70.551Z" fill="#fe0"/>
        <g id="그룹_1" data-name="그룹 1">
          <path id="패스_2" data-name="패스 2" d="M42.516,115.287l7.036,0,1.841-10.436,8.26,10.437,8.775,0L56.568,100.3,70.252,86.324l-9.118,0-7.865,8.007,1.426-8.01-7.032,0Z" fill="#008b7d"/>
          <path id="패스_3" data-name="패스 3" d="M81.065,106.55l-11.58.179a7.749,7.749,0,0,0,5.87,2.385A8.256,8.256,0,0,0,81.065,106.55Z" fill="#008b7d"/>
          <path id="패스_4" data-name="패스 4" d="M68.048,104.741c-.149-.281-.274-.588-.274-.588l15-.264a8.538,8.538,0,0,1-.437.918c-.2.35-.386.63-.386.63l-13.648-.231S68.2,105.029,68.048,104.741Z" fill="#008b7d"/>
          <path id="패스_5" data-name="패스 5" d="M67.193,102.047c.026.2.089.516.089.516l7.835.138.239-1.325-8.223.144S67.166,101.851,67.193,102.047Z" fill="#008b7d"/>
          <path id="패스_6" data-name="패스 6" d="M67.217,99.447c-.044.27-.068.507-.068.507l8.432.147.241-1.328-8.5.148S67.262,99.177,67.217,99.447Z" fill="#008b7d"/>
          <path id="패스_7" data-name="패스 7" d="M68.115,96.78c-.131.233-.262.543-.262.543l27.154.47.348-1.964-26.96.463S68.244,96.541,68.115,96.78Z" fill="#008b7d"/>
          <path id="패스_8" data-name="패스 8" d="M69.644,94.713l11.592.194a8,8,0,0,0-11.592-.194Z" fill="#008b7d"/>
          <path id="패스_9" data-name="패스 9" d="M82.159,94.925l13.318.239.357-1.971-12.206.214Z" fill="#008b7d"/>
          <path id="패스_10" data-name="패스 10" d="M80.355,86.327s.6.217.941.365c.379.163.89.427.89.427l24.782.433a6.634,6.634,0,0,0-1.835-.86,10.237,10.237,0,0,0-1.757-.373Z" fill="#008b7d"/>
          <path id="패스_11" data-name="패스 11" d="M84.878,88.893c-.478-.4-1.075-.8-1.075-.8l23.371-.4a8.275,8.275,0,0,1,1.276,1.155,9.248,9.248,0,0,1,.977,1.326l-23.6-.408S85.372,89.311,84.878,88.893Z" fill="#008b7d"/>
          <path id="패스_12" data-name="패스 12" d="M84.633,92.351l1.573-1.63,23.3-.409a8.963,8.963,0,0,1,.547,1.18,8.571,8.571,0,0,1,.343,1.3Z" fill="#008b7d"/>
          <path id="패스_13" data-name="패스 13" d="M102.615,94.076a3.309,3.309,0,0,0-.912-.986l8.718-.152a8.535,8.535,0,0,1,.094,1.23c-.006.554-.094,1.251-.094,1.251l-7.593-.137A2.074,2.074,0,0,0,102.615,94.076Z" fill="#008b7d"/>
          <path id="패스_14" data-name="패스 14" d="M101.163,104.417a3.822,3.822,0,0,0-1.06-.825l9.049-.16a8.826,8.826,0,0,1,.213,1.18,11.77,11.77,0,0,1,.044,1.3l-7.823-.138A2.149,2.149,0,0,0,101.163,104.417Z" fill="#008b7d"/>
          <path id="패스_15" data-name="패스 15" d="M110.128,96.762c.175-.642.275-1.2.275-1.2l-7.627.127a3,3,0,0,1-.617,1.276,4.9,4.9,0,0,1-1.433.929l8.974.153S109.966,97.368,110.128,96.762Z" fill="#008b7d"/>
          <path id="패스_16" data-name="패스 16" d="M109.256,107.316a6.812,6.812,0,0,0,.144-1.257l-7.856.136a3.125,3.125,0,0,1-.49,1.194,5.355,5.355,0,0,1-.915.99l8.781.152A10.72,10.72,0,0,0,109.256,107.316Z" fill="#008b7d"/>
          <path id="패스_17" data-name="패스 17" d="M90.3,99.434c-.028-.4-.1-.912-.1-.912l19.433-.331a11.231,11.231,0,0,1-.758,1.4c-.255.356-.862,1.08-.862,1.08l-17.676-.307S90.325,99.833,90.3,99.434Z" fill="#008b7d"/>
          <path id="패스_18" data-name="패스 18" d="M90.273,102.06c.051-.457.055-.949.055-.949l17.649-.306a10.812,10.812,0,0,1,.635,1.116,8.092,8.092,0,0,1,.512,1.372l-18.959-.329S90.225,102.505,90.273,102.06Z" fill="#008b7d"/>
          <path id="패스_19" data-name="패스 19" d="M89.8,104.665c-.137.515-.28.91-.28.91l4.087.066.352-1.945-3.942.068S89.938,104.153,89.8,104.665Z" fill="#008b7d"/>
          <path id="패스_20" data-name="패스 20" d="M88.81,107.306c.279-.561.4-.9.4-.9l4.283-.074-.35,1.925-4.791-.085S88.556,107.818,88.81,107.306Z" fill="#008b7d"/>
          <path id="패스_21" data-name="패스 21" d="M87.208,109.933c.432-.57.622-.889.622-.889l21.041-.369a12.2,12.2,0,0,1-.566,1.265c-.268.482-.762,1.218-.762,1.218l-21.029-.367S86.884,110.361,87.208,109.933Z" fill="#008b7d"/>
          <path id="패스_22" data-name="패스 22" d="M84.647,112.583c.58-.467,1.027-.91,1.027-.91l21.738-.355a9.422,9.422,0,0,1-1.2,1.324,11.451,11.451,0,0,1-1.489,1.141l-21.182-.375S84.068,113.052,84.647,112.583Z" fill="#008b7d"/>
          <path id="패스_23" data-name="패스 23" d="M104.468,113.926a8.5,8.5,0,0,1-1.822.835,9.378,9.378,0,0,1-2.269.525l-20.735-.009s.65-.208,1.157-.419,1.2-.55,1.2-.55Z" fill="#008b7d"/>
        </g>
      </g>
    </g>
    <path id="Color_Overlay" data-name="Color Overlay" d="M52.035,62.333H86.611l-1.749,9.661L50.313,72Zm-19.159-13.8L31.036,58.971l-7.035,0,5.147-28.96,7.033,0-1.426,8.01,7.865-8.007,9.118,0L38.052,43.978,49.91,58.969l-8.774,0ZM61.126,58.96s.651-.208,1.157-.418,1.2-.55,1.2-.55l22.469-.383a8.488,8.488,0,0,1-1.822.835,9.358,9.358,0,0,1-2.27.526Zm3.9-1.87s.528-.356,1.107-.824,1.028-.911,1.028-.911L88.9,55a9.442,9.442,0,0,1-1.2,1.324,11.447,11.447,0,0,1-1.489,1.141ZM68,54.472s.37-.43.694-.858c.432-.571.622-.889.622-.889l21.041-.369a12.251,12.251,0,0,1-.566,1.265c-.268.481-.761,1.218-.761,1.218ZM50.97,50.412l11.579-.18A8.253,8.253,0,0,1,56.84,52.8l-.227,0A7.737,7.737,0,0,1,50.97,50.412ZM81.623,52.06a5.361,5.361,0,0,0,.915-.99,3.124,3.124,0,0,0,.491-1.193l7.856-.136A6.837,6.837,0,0,1,90.741,51a10.828,10.828,0,0,1-.337,1.214ZM69.84,51.854s.2-.355.454-.867c.279-.562.4-.9.4-.9l4.283-.074-.351,1.925Zm13.231-2.4a2.152,2.152,0,0,0-.423-1.359,3.817,3.817,0,0,0-1.06-.825l9.049-.16a8.79,8.79,0,0,1,.213,1.181,11.789,11.789,0,0,1,.044,1.3Zm-12.064-.2s.143-.4.28-.91.217-.9.217-.9l3.942-.068-.352,1.945Zm-21.216-.368s-.1-.178-.258-.466-.274-.588-.274-.588l15-.264a8.594,8.594,0,0,1-.437.918c-.205.35-.386.63-.386.63Zm21.858-2.242s.06-.46.108-.905.055-.949.055-.949l17.65-.306A10.719,10.719,0,0,1,90.1,45.6a8.078,8.078,0,0,1,.512,1.373Zm-22.882-.4s-.063-.317-.089-.516-.059-.527-.059-.527l8.223-.144L56.6,46.382Zm23.054-2.2s-.011-.532-.04-.931-.1-.913-.1-.913l19.433-.331a11.192,11.192,0,0,1-.758,1.4c-.255.356-.862,1.08-.862,1.08Zm-23.188-.41s.023-.237.068-.507.1-.527.1-.527l8.5-.148-.24,1.328ZM82.21,41.576a4.892,4.892,0,0,0,1.434-.929,3,3,0,0,0,.617-1.275l7.627-.128s-.1.557-.275,1.2c-.161.606-.427,1.285-.427,1.285ZM49.337,41s.131-.31.262-.543.281-.489.281-.489l26.959-.464-.348,1.965Zm34.975-2.04a2.078,2.078,0,0,0-.212-1.206,3.311,3.311,0,0,0-.912-.986l8.717-.152A8.579,8.579,0,0,1,92,37.85c-.006.554-.094,1.251-.094,1.251Zm-20.669-.357,1.469-1.518,12.206-.214-.356,1.971Zm-12.515-.211a8,8,0,0,1,11.592.194Zm14.989-2.362,1.573-1.63,23.3-.41a9.051,9.051,0,0,1,.547,1.18,8.575,8.575,0,0,1,.343,1.3Zm1.2-2.592s-.458-.448-.952-.866c-.478-.4-1.075-.8-1.075-.8l23.37-.4a8.276,8.276,0,0,1,1.276,1.155,9.279,9.279,0,0,1,.977,1.326ZM63.671,30.8s-.512-.265-.891-.427c-.344-.148-.941-.365-.941-.365L84.862,30a10.253,10.253,0,0,1,1.757.374,6.656,6.656,0,0,1,1.835.859Z" fill="#fff"/>
  </g>
</svg>
