<svg xmlns="http://www.w3.org/2000/svg" xmlns:xlink="http://www.w3.org/1999/xlink" width="60" height="60" viewBox="0 0 60 60"><defs><linearGradient id="a" x1="0.149" y1="0.851" x2="0.841" y2="0.159" gradientUnits="objectBoundingBox"><stop offset="0.03" stop-color="#ffa100"/><stop offset="0.046" stop-color="#fd9803"/><stop offset="0.196" stop-color="#f04621"/><stop offset="0.303" stop-color="#e81333"/><stop offset="0.355" stop-color="#e5003b"/><stop offset="0.707" stop-color="#741874"/><stop offset="1" stop-color="#394693"/></linearGradient></defs><g transform="translate(-290 -1245)"><g transform="translate(-93.823 918.602)"><path d="M443.823,356.4a30,30,0,1,1-30-30A30,30,0,0,1,443.823,356.4Z" fill="url(#a)"/></g><g transform="translate(-71.589 934.295)"><path d="M399.532,357.7H385.645a9.123,9.123,0,0,1-9.056-9.166V334.873a9.122,9.122,0,0,1,9.056-9.168h13.887a9.122,9.122,0,0,1,9.056,9.168v13.665A9.122,9.122,0,0,1,399.532,357.7Zm-13.887-29.037a6.174,6.174,0,0,0-6.129,6.205v13.665a6.175,6.175,0,0,0,6.129,6.2h13.887a6.174,6.174,0,0,0,6.129-6.2V334.873a6.174,6.174,0,0,0-6.129-6.205Z" fill="#fff"/><path d="M392.589,350.1a8.4,8.4,0,1,1,8.295-8.4A8.354,8.354,0,0,1,392.589,350.1Zm0-13.831a5.434,5.434,0,1,0,5.368,5.434A5.407,5.407,0,0,0,392.589,336.271Z" fill="#fff"/><path d="M403.128,333.145a1.952,1.952,0,1,1-1.952-1.975A1.964,1.964,0,0,1,403.128,333.145Z" fill="#fff"/></g></g></svg>