<svg xmlns="http://www.w3.org/2000/svg" width="60" height="60" viewBox="0 0 60 60"><g transform="translate(-391 -1245)"><circle cx="30" cy="30" r="30" transform="translate(391 1245)" fill="#ed2024"/><g transform="translate(143.794 1187.495)"><path d="M293,81.693a4.81,4.81,0,0,0-4.843-4.773s-4.421-.415-10.737-.415-11.158.415-11.158.415a4.81,4.81,0,0,0-4.843,4.773s-.209,2.668-.209,5.875.209,5.747.209,5.747a4.809,4.809,0,0,0,4.843,4.773s6.2.415,10.843.415,11.052-.415,11.052-.415A4.809,4.809,0,0,0,293,93.316s.21-2.543.21-5.747S293,81.693,293,81.693ZM274.574,92.279V82.732l8,4.67Z" fill="#fff"/></g></g></svg>